<svg xmlns="http://www.w3.org/2000/svg" version="1.0" width="549.000000pt" height="238.000000pt" viewBox="0 0 549.000000 238.000000" preserveAspectRatio="xMidYMid meet">

<g transform="translate(0.000000,238.000000) scale(0.100000,-0.100000)" fill="#FF003C" stroke="none">
<path d="M2670 1619 c-84 -15 -154 -51 -188 -98 -52 -72 -67 -158 -67 -391 0 -185 2 -212 23 -277 56 -178 151 -209 611 -200 203 3 267 8 310 22 107 33 150 79 183 193 17 56 20 99 20 257 1 329 -41 430 -199 482 -39 13 -105 17 -343 19 -162 1 -320 -2 -350 -7z m652 -98 c57 -18 94 -55 115 -114 15 -44 18 -85 17 -262 0 -390 -9 -397 -466 -396 -454 1 -468 12 -468 389 0 212 10 278 47 323 59 70 114 79 448 75 171 -2 284 -7 307 -15z"/>
<path d="M3975 1621 c-129 -21 -184 -53 -216 -126 -40 -93 -32 -238 17 -303 56 -73 164 -92 529 -92 214 0 245 -3 282 -19 60 -28 77 -60 77 -145 0 -87 -22 -132 -79 -161 -37 -19 -60 -20 -335 -20 -254 0 -300 2 -332 17 -47 21 -66 51 -75 118 l-8 55 -50 0 -50 0 3 -50 c11 -209 120 -254 582 -242 233 7 294 17 362 62 67 44 100 158 84 288 -10 76 -39 116 -111 152 l-60 30 -315 6 c-352 7 -378 12 -418 70 -21 30 -23 44 -20 111 3 69 6 80 33 108 16 16 47 36 70 43 59 18 534 17 598 -2 50 -14 84 -47 92 -88 16 -79 11 -73 65 -73 48 0 50 1 50 28 0 56 -40 151 -76 178 -65 50 -108 57 -389 60 -143 1 -282 -1 -310 -5z"/>
<path d="M295 1598 c-3 -13 -4 -228 -3 -478 l3 -455 53 -3 52 -3 0 398 c0 219 4 403 8 410 11 18 39 -1 154 -108 57 -52 228 -210 382 -350 153 -140 301 -275 330 -301 48 -45 54 -47 109 -48 l57 0 1 208 c1 114 3 218 5 232 2 14 1 137 -3 273 l-6 248 -51 -3 -51 -3 -1 -385 c0 -429 0 -420 -15 -420 -15 0 -84 63 -647 581 -264 242 -245 229 -312 229 -54 0 -60 -2 -65 -22z"/>
<path d="M1664 1196 c-3 -8 -4 -27 -2 -43 l3 -28 268 -3 267 -2 0 45 0 45 -265 0 c-220 0 -267 -2 -271 -14z"/>
<path xmlns="http://www.w3.org/2000/svg" d="M2670 1619 c-84 -15 -154 -51 -188 -98 -52 -72 -67 -158 -67 -391 0 -185 2 -212 23 -277 56 -178 151 -209 611 -200 203 3 267 8 310 22 107 33 150 79 183 193 17 56 20 99 20 257 1 329 -41 430 -199 482 -39 13 -105 17 -343 19 -162 1 -320 -2 -350 -7z m652 -98 c57 -18 94 -55 115 -114 15 -44 18 -85 17 -262 0 -390 -9 -397 -466 -396 -454 1 -468 12 -468 389 0 212 10 278 47 323 59 70 114 79 448 75 171 -2 284 -7 307 -15z"/>
<path xmlns="http://www.w3.org/2000/svg" d="M3975 1621 c-129 -21 -184 -53 -216 -126 -40 -93 -32 -238 17 -303 56 -73 164 -92 529 -92 214 0 245 -3 282 -19 60 -28 77 -60 77 -145 0 -87 -22 -132 -79 -161 -37 -19 -60 -20 -335 -20 -254 0 -300 2 -332 17 -47 21 -66 51 -75 118 l-8 55 -50 0 -50 0 3 -50 c11 -209 120 -254 582 -242 233 7 294 17 362 62 67 44 100 158 84 288 -10 76 -39 116 -111 152 l-60 30 -315 6 c-352 7 -378 12 -418 70 -21 30 -23 44 -20 111 3 69 6 80 33 108 16 16 47 36 70 43 59 18 534 17 598 -2 50 -14 84 -47 92 -88 16 -79 11 -73 65 -73 48 0 50 1 50 28 0 56 -40 151 -76 178 -65 50 -108 57 -389 60 -143 1 -282 -1 -310 -5z"/>
<path xmlns="http://www.w3.org/2000/svg" d="M295 1598 c-3 -13 -4 -228 -3 -478 l3 -455 53 -3 52 -3 0 398 c0 219 4 403 8 410 11 18 39 -1 154 -108 57 -52 228 -210 382 -350 153 -140 301 -275 330 -301 48 -45 54 -47 109 -48 l57 0 1 208 c1 114 3 218 5 232 2 14 1 137 -3 273 l-6 248 -51 -3 -51 -3 -1 -385 c0 -429 0 -420 -15 -420 -15 0 -84 63 -647 581 -264 242 -245 229 -312 229 -54 0 -60 -2 -65 -22z"/>
<path xmlns="http://www.w3.org/2000/svg" d="M1664 1196 c-3 -8 -4 -27 -2 -43 l3 -28 268 -3 267 -2 0 45 0 45 -265 0 c-220 0 -267 -2 -271 -14z"/>
</g>
</svg>